<?xml version="1.0" standalone="no"?>
<!DOCTYPE svg PUBLIC "-//W3C//DTD SVG 20010904//EN"
 "http://www.w3.org/TR/2001/REC-SVG-20010904/DTD/svg10.dtd">
<svg version="1.0" xmlns="http://www.w3.org/2000/svg"
 width="142.000000pt" height="173.000000pt" viewBox="0 0 142.000000 173.000000"
 preserveAspectRatio="xMidYMid meet">

<g transform="translate(0.000000,173.000000) scale(0.100000,-0.100000)"
fill="#000000" stroke="none">
<path d="M10 1714 c0 -30 135 -611 144 -620 6 -6 127 -66 268 -135 142 -68
257 -127 258 -131 0 -4 -12 -3 -27 3 -39 13 -453 126 -453 123 0 -3 230 -387
235 -392 2 -2 63 10 136 27 72 18 133 30 135 28 2 -2 -56 -39 -128 -83 l-132
-79 -128 -205 c-71 -113 -133 -213 -139 -224 -8 -13 12 -6 68 25 44 24 276
152 516 284 l437 240 0 208 c0 139 4 216 12 230 6 12 51 82 100 155 48 73 88
134 88 135 0 2 -87 -15 -194 -37 l-194 -39 -68 -93 c-38 -51 -71 -93 -74 -94
-3 0 -135 104 -295 231 -493 393 -565 449 -565 443z"/>
</g>
</svg>
