<svg xmlns="http://www.w3.org/2000/svg" width="143" height="140" viewBox="0 0 143 140" version="1.1">
	<path fill-opacity="1" d="M 56.365 8.493 C 52.991 9.227, 46.691 11.539, 42.365 13.632 C 31.312 18.979, 18.986 31.297, 13.650 42.330 C 4.754 60.719, 4.754 81.281, 13.650 99.670 C 18.956 110.640, 31.319 123.025, 42.232 128.303 C 46.485 130.360, 51.323 132.315, 52.982 132.646 L 56 133.250 56 122.125 L 56 111 46.606 111 L 37.212 111 36.535 101.750 C 35.579 88.712, 35.726 89, 30.027 89 L 25.189 89 29.654 77.750 C 32.603 70.320, 34.571 63.387, 35.449 57.331 C 36.185 52.262, 37.911 45.689, 39.310 42.634 C 45.849 28.352, 62.805 19.446, 78.571 22.012 C 95.413 24.753, 107.317 36.862, 110.089 54.073 C 111.408 62.263, 110.300 67.225, 103.408 84 L 97.861 97.500 100.138 111.813 C 102.113 124.225, 102.222 126.248, 100.958 127.047 C 100.156 127.554, 99.874 127.976, 100.331 127.985 C 102.486 128.024, 112.627 120.120, 118.348 113.942 C 136.126 94.739, 140.064 66.546, 128.350 42.330 C 123.022 31.314, 110.686 18.978, 99.670 13.650 C 86.451 7.255, 70.688 5.378, 56.365 8.493 M 68 30.500 C 67.255 31.398, 65.068 32, 62.552 32 C 58.056 32, 54 34.995, 54 38.314 C 54 39.280, 53.220 40, 52.174 40 C 48.991 40, 46 44.211, 46 48.692 C 46 51.084, 45.383 53.267, 44.500 54 C 43.661 54.696, 43 56.876, 43 58.948 C 43 64.104, 46.226 67, 51.969 67 C 56.205 67, 56.267 67.047, 54.551 68.944 C 53.584 70.013, 51.601 71.025, 50.146 71.194 C 47.847 71.460, 47.500 71.959, 47.500 75 C 47.500 78.333, 47.667 78.500, 51 78.500 C 53.978 78.500, 54.550 78.127, 54.833 76 C 55.016 74.625, 56.567 72.037, 58.279 70.250 C 61.025 67.383, 62.018 67, 66.696 67 C 71.687 67, 72 67.148, 72 69.500 C 72 70.875, 72.450 72, 73 72 C 73.550 72, 74 70.875, 74 69.500 C 74 67.148, 74.313 67, 79.304 67 C 83.982 67, 84.975 67.383, 87.721 70.250 C 89.433 72.037, 90.984 74.625, 91.167 76 C 91.450 78.127, 92.022 78.500, 95 78.500 C 98.333 78.500, 98.500 78.333, 98.500 75 C 98.500 71.959, 98.153 71.460, 95.854 71.194 C 94.399 71.025, 92.416 70.013, 91.449 68.944 C 89.732 67.046, 89.797 67, 94.171 67 C 97.561 67, 99.180 66.437, 100.826 64.686 C 103.385 61.961, 103.769 55.883, 101.500 54 C 100.602 53.255, 100 51.068, 100 48.552 C 100 44.056, 97.005 40, 93.686 40 C 92.720 40, 92 39.220, 92 38.174 C 92 34.991, 87.789 32, 83.308 32 C 80.916 32, 78.733 31.383, 78 30.500 C 77.298 29.654, 75.118 29, 73 29 C 70.882 29, 68.702 29.654, 68 30.500 M 56 53 C 56 53.550, 56.450 54, 57 54 C 57.550 54, 58 53.550, 58 53 C 58 52.450, 57.550 52, 57 52 C 56.450 52, 56 52.450, 56 53 M 60 53 C 60 53.550, 60.450 54, 61 54 C 61.550 54, 62 53.550, 62 53 C 62 52.450, 61.550 52, 61 52 C 60.450 52, 60 52.450, 60 53 M 64 53 C 64 53.550, 64.450 54, 65 54 C 65.550 54, 66 53.550, 66 53 C 66 52.450, 65.550 52, 65 52 C 64.450 52, 64 52.450, 64 53 M 80 53 C 80 53.550, 80.450 54, 81 54 C 81.550 54, 82 53.550, 82 53 C 82 52.450, 81.550 52, 81 52 C 80.450 52, 80 52.450, 80 53 M 84 53 C 84 53.550, 84.450 54, 85 54 C 85.550 54, 86 53.550, 86 53 C 86 52.450, 85.550 52, 85 52 C 84.450 52, 84 52.450, 84 53 M 88 53 C 88 53.550, 88.450 54, 89 54 C 89.550 54, 90 53.550, 90 53 C 90 52.450, 89.550 52, 89 52 C 88.450 52, 88 52.450, 88 53 M 50 75 C 50 75.550, 50.450 76, 51 76 C 51.550 76, 52 75.550, 52 75 C 52 74.450, 51.550 74, 51 74 C 50.450 74, 50 74.450, 50 75 M 72 75 C 72 75.550, 72.450 76, 73 76 C 73.550 76, 74 75.550, 74 75 C 74 74.450, 73.550 74, 73 74 C 72.450 74, 72 74.450, 72 75 M 94 75 C 94 75.550, 94.450 76, 95 76 C 95.550 76, 96 75.550, 96 75 C 96 74.450, 95.550 74, 95 74 C 94.450 74, 94 74.450, 94 75 M 72 79 C 72 79.550, 72.450 80, 73 80 C 73.550 80, 74 79.550, 74 79 C 74 78.450, 73.550 78, 73 78 C 72.450 78, 72 78.450, 72 79 M 72 83 C 72 83.550, 72.450 84, 73 84 C 73.550 84, 74 83.550, 74 83 C 74 82.450, 73.550 82, 73 82 C 72.450 82, 72 82.450, 72 83 M 68.571 87.571 C 66.550 89.592, 66.550 94.408, 68.571 96.429 C 69.436 97.293, 71.429 98, 73 98 C 74.571 98, 76.564 97.293, 77.429 96.429 C 79.450 94.408, 79.450 89.592, 77.429 87.571 C 76.564 86.707, 74.571 86, 73 86 C 71.429 86, 69.436 86.707, 68.571 87.571 M 70.389 90.430 C 69.393 93.025, 70.788 95.169, 73.246 94.820 C 74.898 94.585, 75.500 93.833, 75.500 92 C 75.500 90.167, 74.898 89.415, 73.246 89.180 C 71.893 88.988, 70.750 89.488, 70.389 90.430 M 83.813 133.683 C 84.534 133.972, 85.397 133.936, 85.729 133.604 C 86.061 133.272, 85.471 133.036, 84.417 133.079 C 83.252 133.127, 83.015 133.364, 83.813 133.683 M 62.750 134.662 C 63.438 134.940, 64.563 134.940, 65.250 134.662 C 65.938 134.385, 65.375 134.158, 64 134.158 C 62.625 134.158, 62.063 134.385, 62.750 134.662 M 76.269 134.693 C 77.242 134.947, 78.592 134.930, 79.269 134.656 C 79.946 134.382, 79.150 134.175, 77.500 134.195 C 75.850 134.215, 75.296 134.439, 76.269 134.693" stroke="none" fill="#fdca5c" fill-rule="evenodd"/>
	<path fill-opacity="1" d="M 60.322 8.032 C 36.984 12.227, 18.330 28.472, 10.395 51.510 C 8.016 58.419, 7.644 61.055, 7.644 71 C 7.644 80.945, 8.016 83.581, 10.395 90.490 C 17.008 109.690, 30.365 123.710, 48.576 130.565 C 52.134 131.904, 55.260 133, 55.523 133 C 55.785 133, 56 128.050, 56 122 L 56 111 46.579 111 L 37.159 111 36.632 108.250 C 36.342 106.738, 35.809 101.788, 35.448 97.250 L 34.792 89 29.789 89 C 25.430 89, 24.874 88.775, 25.471 87.250 C 32.590 69.056, 34.876 61.747, 35.288 55.861 C 36.211 42.654, 45.068 30.019, 57.395 24.321 C 62.737 21.853, 64.687 21.500, 73 21.500 C 81.308 21.500, 83.253 21.851, 88.500 24.298 C 96.375 27.971, 104.110 35.673, 107.679 43.395 C 110.152 48.747, 110.498 50.672, 110.488 59 C 110.476 68.358, 110.384 68.718, 104.367 83.103 L 98.259 97.706 100.584 111.475 C 101.863 119.047, 103.093 125.426, 103.317 125.651 C 103.541 125.875, 106.427 124.027, 109.730 121.544 C 119.914 113.889, 127.040 103.775, 131.605 90.500 C 133.984 83.584, 134.356 80.941, 134.356 71 C 134.356 61.055, 133.984 58.419, 131.605 51.510 C 124.657 31.335, 110.573 17.207, 90.793 10.566 C 82.097 7.647, 68.674 6.531, 60.322 8.032 M 68.009 30.706 C 66.613 31.684, 64.181 32.293, 62.315 32.132 C 58.800 31.830, 54 35.479, 54 38.455 C 54 39.305, 53.305 40, 52.455 40 C 49.479 40, 45.830 44.800, 46.132 48.315 C 46.293 50.181, 45.684 52.613, 44.706 54.009 C 40.379 60.187, 44.524 67, 52.610 67 C 57.247 67, 57.286 67.027, 55.500 69 C 54.505 70.100, 52.690 71, 51.467 71 C 47.081 71, 45.561 76.064, 49.250 78.388 C 51.582 79.856, 54.387 78.103, 54.835 74.898 C 55.019 73.579, 56.341 71.263, 57.772 69.750 C 60.030 67.364, 61.143 67, 66.187 67 C 71.721 67, 72 67.120, 72 69.500 C 72 70.875, 72.450 72, 73 72 C 73.550 72, 74 70.875, 74 69.500 C 74 67.120, 74.279 67, 79.813 67 C 84.857 67, 85.970 67.364, 88.228 69.750 C 89.659 71.263, 90.981 73.579, 91.165 74.898 C 91.613 78.103, 94.418 79.856, 96.750 78.388 C 100.439 76.064, 98.919 71, 94.533 71 C 93.310 71, 91.495 70.100, 90.500 69 C 88.714 67.027, 88.753 67, 93.390 67 C 101.476 67, 105.621 60.187, 101.294 54.009 C 100.316 52.613, 99.707 50.181, 99.868 48.315 C 100.170 44.800, 96.521 40, 93.545 40 C 92.695 40, 92 39.305, 92 38.455 C 92 35.479, 87.200 31.830, 83.685 32.132 C 81.819 32.293, 79.387 31.684, 77.991 30.706 C 76.651 29.768, 74.405 29, 73 29 C 71.595 29, 69.349 29.768, 68.009 30.706 M 56 53 C 56 53.550, 56.450 54, 57 54 C 57.550 54, 58 53.550, 58 53 C 58 52.450, 57.550 52, 57 52 C 56.450 52, 56 52.450, 56 53 M 60 53 C 60 53.550, 60.450 54, 61 54 C 61.550 54, 62 53.550, 62 53 C 62 52.450, 61.550 52, 61 52 C 60.450 52, 60 52.450, 60 53 M 64 53 C 64 53.550, 64.450 54, 65 54 C 65.550 54, 66 53.550, 66 53 C 66 52.450, 65.550 52, 65 52 C 64.450 52, 64 52.450, 64 53 M 80 53 C 80 53.550, 80.450 54, 81 54 C 81.550 54, 82 53.550, 82 53 C 82 52.450, 81.550 52, 81 52 C 80.450 52, 80 52.450, 80 53 M 84 53 C 84 53.550, 84.450 54, 85 54 C 85.550 54, 86 53.550, 86 53 C 86 52.450, 85.550 52, 85 52 C 84.450 52, 84 52.450, 84 53 M 88 53 C 88 53.550, 88.450 54, 89 54 C 89.550 54, 90 53.550, 90 53 C 90 52.450, 89.550 52, 89 52 C 88.450 52, 88 52.450, 88 53 M 50 75 C 50 75.550, 50.450 76, 51 76 C 51.550 76, 52 75.550, 52 75 C 52 74.450, 51.550 74, 51 74 C 50.450 74, 50 74.450, 50 75 M 72 75 C 72 75.550, 72.450 76, 73 76 C 73.550 76, 74 75.550, 74 75 C 74 74.450, 73.550 74, 73 74 C 72.450 74, 72 74.450, 72 75 M 94 75 C 94 75.550, 94.450 76, 95 76 C 95.550 76, 96 75.550, 96 75 C 96 74.450, 95.550 74, 95 74 C 94.450 74, 94 74.450, 94 75 M 72 79 C 72 79.550, 72.450 80, 73 80 C 73.550 80, 74 79.550, 74 79 C 74 78.450, 73.550 78, 73 78 C 72.450 78, 72 78.450, 72 79 M 72 83 C 72 83.550, 72.450 84, 73 84 C 73.550 84, 74 83.550, 74 83 C 74 82.450, 73.550 82, 73 82 C 72.450 82, 72 82.450, 72 83 M 68.655 87.829 C 65.067 91.793, 67.825 98, 73.174 98 C 78.295 98, 80.966 91.089, 77.171 87.655 C 74.756 85.469, 70.716 85.552, 68.655 87.829 M 70.571 89.571 C 69.707 90.436, 69 91.529, 69 92 C 69 92.471, 69.707 93.564, 70.571 94.429 C 71.436 95.293, 72.529 96, 73 96 C 73.471 96, 74.564 95.293, 75.429 94.429 C 76.293 93.564, 77 92.471, 77 92 C 77 91.529, 76.293 90.436, 75.429 89.571 C 74.564 88.707, 73.471 88, 73 88 C 72.529 88, 71.436 88.707, 70.571 89.571" stroke="none" fill="#fdca5c" fill-rule="evenodd"/>
	<path fill-opacity="1" d="M 71 29.719 C 70.175 30.017, 68.825 30.839, 68 31.546 C 67.175 32.253, 64.852 32.781, 62.838 32.720 C 58.800 32.597, 56.252 34.207, 54.914 37.727 C 54.431 38.997, 52.997 40.431, 51.727 40.914 C 48.207 42.252, 46.597 44.800, 46.720 48.838 C 46.783 50.910, 46.144 53.266, 45.249 54.263 C 43.026 56.739, 43.264 61.708, 45.721 64.166 C 46.960 65.405, 49.620 66.428, 52.422 66.744 C 56.883 67.247, 57.001 67.342, 55.379 69.134 C 54.450 70.160, 52.690 71, 51.467 71 C 47.081 71, 45.561 76.064, 49.250 78.388 C 51.582 79.856, 54.387 78.103, 54.835 74.898 C 55.019 73.579, 56.341 71.263, 57.772 69.750 C 60.030 67.364, 61.143 67, 66.187 67 C 71.721 67, 72 67.120, 72 69.500 C 72 70.875, 72.450 72, 73 72 C 73.550 72, 74 70.875, 74 69.500 C 74 67.120, 74.279 67, 79.813 67 C 84.857 67, 85.970 67.364, 88.228 69.750 C 89.659 71.263, 90.981 73.579, 91.165 74.898 C 91.613 78.103, 94.418 79.856, 96.750 78.388 C 100.439 76.064, 98.919 71, 94.533 71 C 93.310 71, 91.550 70.160, 90.621 69.134 C 88.999 67.342, 89.117 67.247, 93.578 66.744 C 96.380 66.428, 99.040 65.405, 100.279 64.166 C 102.736 61.708, 102.974 56.739, 100.751 54.263 C 99.856 53.266, 99.217 50.910, 99.280 48.838 C 99.403 44.800, 97.793 42.252, 94.273 40.914 C 93.003 40.431, 91.569 38.997, 91.086 37.727 C 89.748 34.207, 87.200 32.597, 83.162 32.720 C 81.148 32.781, 78.825 32.247, 78 31.534 C 76.057 29.853, 72.897 29.034, 71 29.719 M 56 53 C 56 53.550, 56.450 54, 57 54 C 57.550 54, 58 53.550, 58 53 C 58 52.450, 57.550 52, 57 52 C 56.450 52, 56 52.450, 56 53 M 60 53 C 60 53.550, 60.450 54, 61 54 C 61.550 54, 62 53.550, 62 53 C 62 52.450, 61.550 52, 61 52 C 60.450 52, 60 52.450, 60 53 M 64 53 C 64 53.550, 64.450 54, 65 54 C 65.550 54, 66 53.550, 66 53 C 66 52.450, 65.550 52, 65 52 C 64.450 52, 64 52.450, 64 53 M 80 53 C 80 53.550, 80.450 54, 81 54 C 81.550 54, 82 53.550, 82 53 C 82 52.450, 81.550 52, 81 52 C 80.450 52, 80 52.450, 80 53 M 84 53 C 84 53.550, 84.450 54, 85 54 C 85.550 54, 86 53.550, 86 53 C 86 52.450, 85.550 52, 85 52 C 84.450 52, 84 52.450, 84 53 M 88 53 C 88 53.550, 88.450 54, 89 54 C 89.550 54, 90 53.550, 90 53 C 90 52.450, 89.550 52, 89 52 C 88.450 52, 88 52.450, 88 53 M 49.446 74.087 C 48.416 75.755, 50.733 77.667, 52.113 76.287 C 53.267 75.133, 52.545 73, 51 73 C 50.515 73, 49.816 73.489, 49.446 74.087 M 93.446 74.087 C 92.416 75.755, 94.733 77.667, 96.113 76.287 C 97.267 75.133, 96.545 73, 95 73 C 94.515 73, 93.816 73.489, 93.446 74.087 M 72 75 C 72 75.550, 72.450 76, 73 76 C 73.550 76, 74 75.550, 74 75 C 74 74.450, 73.550 74, 73 74 C 72.450 74, 72 74.450, 72 75 M 72 79 C 72 79.550, 72.450 80, 73 80 C 73.550 80, 74 79.550, 74 79 C 74 78.450, 73.550 78, 73 78 C 72.450 78, 72 78.450, 72 79 M 72 83 C 72 83.550, 72.450 84, 73 84 C 73.550 84, 74 83.550, 74 83 C 74 82.450, 73.550 82, 73 82 C 72.450 82, 72 82.450, 72 83 M 69 88 C 67.900 89.100, 67 90.900, 67 92 C 67 93.100, 67.900 94.900, 69 96 C 70.100 97.100, 71.900 98, 73 98 C 74.100 98, 75.900 97.100, 77 96 C 78.100 94.900, 79 93.100, 79 92 C 79 90.900, 78.100 89.100, 77 88 C 75.900 86.900, 74.100 86, 73 86 C 71.900 86, 70.100 86.900, 69 88 M 70.040 89.452 C 67.383 92.653, 71.285 97.570, 74.750 95.388 C 78.212 93.207, 76.979 88, 73 88 C 72.035 88, 70.703 88.653, 70.040 89.452" stroke="none" fill="#f77b55" fill-rule="evenodd"/>
	<path fill-opacity="1" d="M 69.516 49.626 C 68.622 50.521, 68.027 52.310, 68.195 53.602 C 68.428 55.399, 66.644 57.818, 60.609 63.890 C 56.268 68.256, 52.164 71.616, 51.488 71.357 C 50.218 70.870, 47 73.482, 47 75 C 47 76.025, 49.859 79.006, 50.821 78.985 C 52.521 78.946, 54.335 76.994, 54.478 75.047 C 54.653 72.678, 69.861 56.796, 71.177 57.609 C 71.629 57.889, 72 61.241, 72 65.059 C 72 69.020, 72.429 72, 73 72 C 73.571 72, 74 69.020, 74 65.059 C 74 61.241, 74.371 57.889, 74.823 57.609 C 76.139 56.796, 91.347 72.678, 91.522 75.047 C 91.665 76.994, 93.479 78.946, 95.179 78.985 C 96.141 79.006, 99 76.025, 99 75 C 99 73.482, 95.782 70.870, 94.512 71.357 C 93.836 71.616, 89.732 68.256, 85.391 63.890 C 79.356 57.818, 77.572 55.399, 77.805 53.602 C 78.158 50.880, 75.688 48, 73 48 C 71.979 48, 70.411 48.732, 69.516 49.626 M 70.958 51.550 C 69.896 52.831, 69.961 53.390, 71.336 54.764 C 72.888 56.317, 73.112 56.317, 74.664 54.764 C 76.039 53.390, 76.104 52.831, 75.042 51.550 C 74.334 50.698, 73.415 50, 73 50 C 72.585 50, 71.666 50.698, 70.958 51.550 M 49 75 C 49 76.333, 49.667 77, 51 77 C 52.333 77, 53 76.333, 53 75 C 53 73.667, 52.333 73, 51 73 C 49.667 73, 49 73.667, 49 75 M 93 75 C 93 76.333, 93.667 77, 95 77 C 96.333 77, 97 76.333, 97 75 C 97 73.667, 96.333 73, 95 73 C 93.667 73, 93 73.667, 93 75 M 72 75 C 72 75.550, 72.450 76, 73 76 C 73.550 76, 74 75.550, 74 75 C 74 74.450, 73.550 74, 73 74 C 72.450 74, 72 74.450, 72 75 M 72 79 C 72 79.550, 72.450 80, 73 80 C 73.550 80, 74 79.550, 74 79 C 74 78.450, 73.550 78, 73 78 C 72.450 78, 72 78.450, 72 79 M 72 83 C 72 83.550, 72.450 84, 73 84 C 73.550 84, 74 83.550, 74 83 C 74 82.450, 73.550 82, 73 82 C 72.450 82, 72 82.450, 72 83 M 69.455 88.455 C 68.105 89.805, 67 91.400, 67 92 C 67 92.600, 68.105 94.195, 69.455 95.545 C 70.805 96.895, 72.400 98, 73 98 C 73.600 98, 75.195 96.895, 76.545 95.545 C 77.895 94.195, 79 92.600, 79 92 C 79 91.400, 77.895 89.805, 76.545 88.455 C 75.195 87.105, 73.600 86, 73 86 C 72.400 86, 70.805 87.105, 69.455 88.455 M 70.040 89.452 C 67.383 92.653, 71.285 97.570, 74.750 95.388 C 78.212 93.207, 76.979 88, 73 88 C 72.035 88, 70.703 88.653, 70.040 89.452" stroke="none" fill="black" fill-rule="evenodd"/>
</svg>