<?xml version="1.0" encoding="utf-8"?>
<!DOCTYPE svg PUBLIC "-//W3C//DTD SVG 20010904//EN" "http://www.w3.org/TR/2001/REC-SVG-20010904/DTD/svg10.dtd">
<svg version="1.0" xmlns="http://www.w3.org/2000/svg" width="995px" height="992px" viewBox="0 0 995 992" preserveAspectRatio="xMidYMid meet">
 <g fill="#fcc900">
  <path d="M0 496 l0 -496 497.5 0 497.5 0 0 205 0 205 -2.8 0 c-2.3 0 -7.7 -4.9 -32.2 -29.5 -16.2 -16.3 -29.6 -29.1 -29.8 -28.5 -0.2 0.5 -1.9 1 -3.9 1 l-3.5 0 0.4 -4.5 c0.2 -3.1 -0.1 -4.6 -1 -5 -0.8 -0.3 -55.6 -0.5 -121.8 -0.5 l-120.4 0 0 -8.2 c-0.1 -9 -0.9 -11.1 -5.4 -12.8 -1.9 -0.7 -64 -1 -193.7 -1 -207 0 -195.8 -0.3 -197.3 5.2 -0.3 1.3 -0.6 4.2 -0.6 6.5 l0 4.3 -96.2 0.2 -96.3 0.3 -4.7 2.2 c-5.9 2.9 -9.1 6.8 -8.3 10.3 1.1 4.3 5.7 11.3 10.7 16.2 2.6 2.6 4.8 5 4.8 5.3 0 0.4 2.4 3.5 5.3 6.8 3 3.4 6.5 7.5 7.8 9.1 1.3 1.6 3.5 4.2 4.9 5.7 1.4 1.5 4.1 4.7 6 7 1.9 2.4 4.2 5 5 5.9 0.8 0.8 2.5 2.9 3.8 4.5 1.3 1.6 4.3 5.2 6.7 8 2.3 2.7 7.3 8.6 11.1 13 3.8 4.4 7.3 8.5 7.9 9.1 0.5 0.6 5.3 6.3 10.7 12.5 8 9.5 18.1 21.3 36.8 43.3 1.4 1.6 3.4 3.9 4.5 5.2 1.1 1.2 3.8 4.4 6 7 2.2 2.7 5.2 6.2 6.8 7.7 1.5 1.6 2.7 3.1 2.7 3.4 0 0.3 2.8 3.7 6.3 7.6 3.4 4 7.2 8.3 8.4 9.7 1.1 1.4 7.7 9 14.5 17 6.8 8 13.5 15.9 14.9 17.5 1.5 1.7 8 9.3 14.5 17 6.5 7.7 12.1 14.2 12.4 14.5 0.3 0.3 5.4 6.2 11.3 13.2 9.2 10.9 10.7 13.2 10.7 16.2 l0 3.6 -18 0 -18 0 0 -5.2 c0 -2.9 -0.4 -5.9 -0.8 -6.6 -0.7 -0.9 -4 -1.2 -13.3 -1 l-12.4 0.3 -0.3 6.2 -0.3 6.3 -16.2 0.2 -16.2 0.3 -0.3 20.4 -0.2 20.4 2.7 3.6 c2.4 3.2 145.2 166.8 152.4 174.6 1.5 1.7 22.2 25.3 46 52.5 23.8 27.2 43.9 50.2 44.8 51.1 0.9 0.9 5.4 6.1 10.1 11.4 4.7 5.4 9.7 11.2 11.3 12.9 1.6 1.8 2.7 4.2 2.7 5.8 l0 2.8 -243 0 -243 0 0 -496z"/>
 </g>
 <g fill="#ba9500">
  <path d="M482.7 989.7 c-0.8 -1.3 -3.2 -4.3 -5.3 -6.7 -4.3 -4.8 -13.2 -14.8 -17.3 -19.5 -1.5 -1.6 -22.2 -25.3 -46 -52.5 -23.8 -27.2 -44.5 -50.8 -46 -52.5 -7.1 -7.8 -150 -171.4 -152.4 -174.6 -3.2 -4.3 -3.5 -6.9 -0.7 -6.9 1.1 0 2 0.5 2 1 0 0.7 88.4 0.9 264.8 0.8 l264.7 -0.3 0 -21 0 -21 -13.2 -0.3 -13.3 -0.3 0 -5.2 c0 -2.9 -0.5 -5.8 -1.2 -6.5 -0.8 -0.8 -5.1 -1.2 -12.9 -1.2 -13.2 0 -12.9 -0.2 -12.9 8.1 l0 4.9 -30.9 0 -31 0 -1.6 -5.7 c-4.1 -13.9 -3.8 -35.4 0.6 -48.6 2.2 -6.6 6.6 -15.2 10.6 -20.5 l2.4 -3.2 15.8 0 c22.4 0 20.5 2.7 21.1 -29.7 l0.5 -25.8 5.3 -2.7 c2.9 -1.4 6.5 -3.1 8 -3.6 1.5 -0.5 16.4 -6.9 33.2 -14.2 16.8 -7.2 39.7 -17.2 51 -22 20.9 -9.1 120.6 -52.2 136 -58.9 l8.5 -3.7 0.3 -26.7 c0.2 -23.3 0 -26.7 -1.3 -26.7 -0.8 0 -1.5 -0.9 -1.5 -2 0 -1.5 0.7 -2 2.7 -2 2.3 0 8.6 5.8 36 33.3 18.3 18.2 33.9 33.3 34.8 33.5 1.3 0.3 1.5 31.9 1.5 292.8 l0 292.4 -255.4 0 -255.4 0 -1.5 -2.3z"/>
  <path d="M301 635.1 c0 -1.8 0.6 -2.1 4 -2.1 2.2 0 4 -0.3 4 -0.6 0 -0.5 -20.6 -25.2 -22 -26.4 -0.3 -0.3 -5.9 -6.8 -12.4 -14.5 -6.5 -7.7 -13 -15.3 -14.5 -17 -1.4 -1.6 -8.1 -9.5 -14.9 -17.5 -6.8 -8 -13.4 -15.6 -14.5 -17 -1.2 -1.4 -5 -5.7 -8.4 -9.7 -3.5 -3.9 -6.3 -7.3 -6.3 -7.6 0 -0.3 -1.2 -1.8 -2.7 -3.4 -1.6 -1.5 -4.6 -5 -6.8 -7.7 -2.2 -2.6 -4.9 -5.8 -6 -7 -1.1 -1.3 -3.1 -3.6 -4.5 -5.2 -18.7 -22 -28.8 -33.8 -36.8 -43.3 -5.4 -6.2 -10.2 -11.9 -10.7 -12.5 -0.6 -0.6 -4.1 -4.7 -7.9 -9.1 -3.8 -4.4 -8.8 -10.3 -11.1 -13 -2.4 -2.8 -5.4 -6.4 -6.7 -8 -1.3 -1.6 -3 -3.7 -3.8 -4.5 -0.8 -0.9 -3.1 -3.5 -5 -5.9 -1.9 -2.3 -4.6 -5.5 -6 -7 -1.4 -1.5 -4.5 -5.2 -7 -8.2 -2.5 -2.9 -6.2 -7.3 -8.4 -9.6 -2.1 -2.4 -3.5 -4.3 -3.1 -4.3 0.4 0 0.2 -0.7 -0.5 -1.5 -1.1 -1.3 -0.8 -1.5 1.9 -1.5 1.7 0 3.9 0.7 4.8 1.4 1 0.8 17.6 13.8 36.9 28.8 19.3 15 48.5 37.9 64.9 50.8 16.4 12.9 33 25.9 36.9 28.9 3.9 3 11.7 9.1 17.3 13.5 5.6 4.5 12.2 9.7 14.8 11.6 2.5 1.9 7.3 5.7 10.5 8.4 l6 4.9 0 16.9 c0 16.6 0 16.9 2.5 19.3 2.4 2.4 2.8 2.5 18.3 2.5 18.2 0 17.1 -0.5 23.7 10.5 9.7 16.2 11.9 37 6.3 61 -0.6 2.8 -1.4 5.3 -1.7 5.6 -0.3 0.4 -7.5 1 -15.8 1.4 -15 0.6 -15.3 0.6 -15.3 -1.4z"/>
 </g>
 <g fill="#40484b">
  <path d="M244 635 c0 -1.1 0.4 -2 1 -2 0.5 0 1 -2.8 1.2 -6.2 l0.3 -6.3 15.4 -0.3 c11.7 -0.2 15.6 0.1 16.3 1 0.4 0.7 0.8 3.7 0.8 6.6 0 3.9 0.4 5.2 1.5 5.2 1.7 0 1.9 0.9 0.6 2.9 -0.8 1.2 -2.4 1.3 -11 0.1 -7.8 -1 -10.4 -1.1 -11.3 -0.2 -0.7 0.7 -4.2 1.2 -8 1.2 -6.1 0 -6.8 -0.2 -6.8 -2z"/>
  <path d="M328 634.7 c0 -0.7 0.4 -1.7 0.8 -2.2 1 -1.2 2.7 -8.4 4.3 -17.9 1.3 -7.7 0.6 -19 -1.6 -26.3 -0.8 -2.6 -1.5 -5.1 -1.5 -5.5 0 -0.5 68.3 -0.8 151.8 -0.8 l151.8 0 -1.8 7.3 c-1.9 7.4 -2.6 24.4 -1.3 30.2 2.1 9.1 3.8 13.5 5.1 13.5 0.8 0 1.4 0.7 1.4 1.5 0 1.3 -17.8 1.5 -154.5 1.5 -126.1 0 -154.5 -0.2 -154.5 -1.3z"/>
  <path d="M687.6 635.2 c-1.1 -1 -0.6 -2.2 0.9 -2.2 1.1 0 1.5 -1.2 1.5 -4.9 0 -8.4 -0.7 -8.1 15.9 -8.1 10.1 0 15.1 0.4 15.9 1.2 0.7 0.7 1.2 3.6 1.2 6.5 0 4 0.4 5.3 1.5 5.3 0.8 0 1.5 0.6 1.5 1.3 0 0.9 -4.5 1.2 -18.9 1.4 -10.4 0.1 -19.2 -0.1 -19.5 -0.5z"/>
  <path d="M318.3 562.8 c-1.4 -1.6 -3.6 -1.8 -17.5 -1.8 -15.5 0 -15.9 -0.1 -18.3 -2.5 -2.5 -2.4 -2.5 -2.7 -2.5 -19.3 0 -13.9 -0.3 -17.2 -1.5 -18.2 -1.3 -1.1 -1.5 -12.8 -1.5 -94.1 0 -81.9 0.2 -92.9 1.5 -92.9 1.1 0 1.5 -1.1 1.5 -4.2 0 -2.4 0.3 -5.3 0.6 -6.6 1.5 -5.5 -9.9 -5.2 199.9 -5.2 192.6 0 193.5 0 193.5 2 0 2 -0.8 2 -68.6 2.2 l-68.7 0.3 -8.7 32 c-4.8 17.6 -10.6 38.8 -12.9 47 -2.3 8.3 -6 21.5 -8.2 29.5 -2.2 8 -6.1 22.4 -8.7 32 -2.7 9.6 -10 36.3 -16.3 59.2 l-11.4 41.8 -75.3 0.2 c-70.7 0.3 -75.4 0.2 -76.9 -1.4z"/>
  <path d="M270.8 514.7 c-1.5 -1.2 -4.8 -3.8 -7.3 -5.7 -2.6 -1.9 -9.2 -7.1 -14.8 -11.6 -5.6 -4.4 -13.4 -10.5 -17.3 -13.5 -3.9 -3 -20.5 -16 -36.9 -28.9 -27.4 -21.6 -95.3 -74.6 -103.5 -80.8 -13.9 -10.5 -20.7 -25.3 -14.9 -32.6 1.1 -1.4 4.2 -3.6 6.7 -4.9 l4.7 -2.2 93.3 -0.3 93.2 -0.2 0 91.5 c0 50.3 -0.1 91.5 -0.2 91.5 -0.2 0 -1.5 -1.1 -3 -2.3z"/>
  <path d="M689 421.6 l0 -81.6 118.3 0.2 118.2 0.3 0 30 0 29.9 -8.5 3.7 c-15.1 6.6 -114.9 49.8 -136 58.9 -11.3 4.8 -34.2 14.8 -51 22 -16.8 7.3 -31.8 13.7 -33.5 14.3 -1.6 0.6 -4 1.7 -5.2 2.5 l-2.3 1.4 0 -81.6z"/>
 </g>
 <g fill="#505b5f">
  <path d="M465 562.5 c0 -0.8 0.6 -1.5 1.3 -1.5 0.7 0 5.3 -15.1 12.6 -41.8 6.3 -22.9 13.6 -49.6 16.3 -59.2 2.6 -9.6 6.5 -24 8.7 -32 2.2 -8 5.9 -21.2 8.2 -29.5 2.3 -8.2 8.1 -29.4 12.9 -47 l8.7 -32 70.9 -0.5 c39 -0.3 72 -0.1 73.3 0.3 4.1 1.3 5 3.6 5.1 12.5 0 6.6 0.3 8.2 1.5 8.2 1.3 0 1.5 9.7 1.5 81.7 0 76.3 -0.1 81.8 -1.7 83.6 -1.6 1.7 -1.8 4.5 -1.8 26.9 l0 25 -2.4 1.9 c-2.1 1.7 -4 1.9 -18.1 1.9 -12.8 0 -16 0.3 -17 1.5 -1.1 1.3 -12.4 1.5 -90.6 1.5 -78.8 0 -89.4 -0.2 -89.4 -1.5z"/>
 </g>
 <g fill="#141414">
  <path d="M213.5 679.8 c-0.3 -1.3 -0.4 -12.2 -0.3 -24.3 l0.3 -22 16.3 -0.3 16.2 -0.2 0 -5.5 c0 -2.9 0.3 -5.6 0.8 -5.8 0.4 -0.3 0.5 2.4 0.4 5.9 -0.2 3.8 0 6.4 0.6 6.4 0.6 0 1.2 -0.6 1.5 -1.2 0.3 -1 0.8 -1 2.1 0.1 1.4 1.1 2.1 1.2 4 0.1 2.4 -1.2 18.9 -1 20.3 0.3 1.4 1.5 1.8 0.5 1.7 -4.5 -0.2 -7.6 -0.2 -7.8 -2.1 -7.9 -1.2 0 -1.3 -0.2 -0.5 -0.6 2.6 -1 4.3 1.9 4.1 6.9 -0.2 2.6 0 5 0.3 5.3 0.9 0.9 49 0.7 49.8 -0.2 0.5 -0.4 1 -1.7 1.3 -2.8 0.3 -1.5 0.5 -1.3 0.6 0.8 l0.1 2.8 208.6 -0.2 c127.5 -0.1 208.9 0.2 209.5 0.8 0.5 0.5 0.8 10.9 0.7 24.4 l-0.3 23.4 -267.7 0.3 -267.8 0.2 -0.5 -2.2z"/>
  <path d="M720.3 630.3 c0.4 -0.3 0.2 -1.2 -0.4 -2 -0.9 -1 -0.8 -1.3 0.4 -1.3 0.8 0 1.8 -0.6 2 -1.2 0.3 -0.7 0.6 0.2 0.6 2 0.1 2.3 -0.3 3.2 -1.6 3.2 -0.9 0 -1.3 -0.3 -1 -0.7z"/>
  <path d="M331.5 587.8 c-3.2 -9.3 -5.4 -14 -9.1 -19.5 -2.4 -3.6 -4.4 -6.7 -4.4 -6.9 0 -0.2 73.2 -0.4 162.6 -0.4 143.1 0 162.7 -0.2 164 -1.5 0.9 -0.8 2 -1.5 2.5 -1.5 1.6 0 0.9 2.5 -1.1 3.7 -2.6 1.7 -10.1 14.7 -12.5 21.7 -1.3 3.7 -2.4 5.6 -3.5 5.5 -1 0 -1.1 -0.2 -0.2 -0.6 0.6 -0.2 1.2 -1.1 1.2 -1.9 0 -1.2 -21.2 -1.4 -149.6 -1.4 -149.1 0 -149.5 0 -148.9 2 0.7 2.1 -0.3 2.9 -1 0.8z"/>
  <path d="M275.3 518.4 l-4.3 -3.6 0 -89.8 0 -89.9 -2.7 -0.4 c-1.6 -0.2 0.4 -0.5 4.4 -0.6 l7.2 -0.1 0.3 -3.5 c0.2 -2.8 0.6 -3.3 1.8 -2.5 1.3 0.9 1.3 1.1 0 2 -1.3 0.8 -1.6 13 -2 96.4 l-0.5 95.5 -4.2 -3.5z"/>
  <path d="M266.6 511.7 c-1.4 -1 -1.5 -1.4 -0.4 -1.4 0.7 0 1.9 0.6 2.6 1.4 0.7 0.7 0.9 1.3 0.4 1.3 -0.4 0 -1.6 -0.6 -2.6 -1.3z"/>
  <path d="M681.2 507.2 c-1.7 -0.5 -1.5 -3.2 0.3 -3.2 1.3 0 1.5 -9.6 1.5 -80.4 0 -79.5 0 -80.4 -2 -80.9 -2.5 -0.6 -2.9 -6.7 -0.5 -6.7 0.8 0 1.5 -0.7 1.5 -1.5 0 -0.8 -0.7 -1.5 -1.5 -1.5 -0.8 0 -1.5 -0.9 -1.5 -2 0 -1.3 0.7 -2 2 -2 1.8 0 2 0.7 2 5.5 l0 5.5 4.5 0 4.5 0 0 80 c0 75.7 0.1 79.9 1.8 79.4 0.9 -0.4 0.4 0.3 -1.3 1.5 -1.6 1.1 -3.6 2.1 -4.3 2.1 -0.7 0 -2.3 1 -3.6 2.3 -1.3 1.3 -2.8 2.1 -3.4 1.9z"/>
  <path d="M281 323.1 c0 -1 3.9 -4.6 4.3 -4 0.2 0.2 -0.7 1.4 -2 2.6 -1.3 1.2 -2.3 1.9 -2.3 1.4z"/>
 </g>
 <g fill="#525c52">
  <path d="M330.2 629.5 c0 -1.1 0.3 -2.9 0.8 -4 1.1 -2.5 1.1 0.1 0 3.5 -0.6 2 -0.8 2.1 -0.8 0.5z"/>
  <path d="M720.3 630.3 c0.4 -0.3 0.2 -1.2 -0.3 -1.8 -0.8 -0.9 -0.5 -1.4 1 -1.8 1.6 -0.4 2 0 2 1.9 0 1.6 -0.6 2.4 -1.7 2.4 -0.9 0 -1.3 -0.3 -1 -0.7z"/>
  <path d="M333 614.5 c0 -1.4 0.4 -2.5 0.9 -2.5 0.4 0 0.6 1.1 0.3 2.5 -0.2 1.4 -0.6 2.5 -0.8 2.5 -0.2 0 -0.4 -1.1 -0.4 -2.5z"/>
  <path d="M629.5 593.3 c-0.4 -1.3 -1.1 -2.3 -1.6 -2.3 -0.5 0 -0.6 -0.7 -0.3 -1.5 0.4 -0.8 1.2 -1.5 2 -1.5 0.8 0 1.4 -0.8 1.5 -1.7 0 -1 0.2 -1.3 0.5 -0.8 0.2 0.6 0 3 -0.5 5.5 -0.8 3.8 -1 4.1 -1.6 2.3z"/>
  <path d="M644.3 560.6 c-1 -1.5 2.1 -2.6 6.6 -2.4 6.7 0.4 6.3 2.5 -0.4 3 -3.2 0.1 -5.9 -0.1 -6.2 -0.6z"/>
  <path d="M669.7 560.3 c-1.4 -1.3 -0.6 -2.4 1.5 -2.1 2.7 0.4 3.6 2.8 1.1 2.8 -1.1 0 -2.3 -0.3 -2.6 -0.7z"/>
  <path d="M679 559.3 c0 -0.6 -0.3 -1.8 -0.6 -2.7 -0.4 -1.1 0 -1.6 1.4 -1.6 1.1 0 2.3 -0.6 2.5 -1.2 0.4 -0.8 0.6 -0.7 0.6 0.3 0.1 0.9 -0.8 2.7 -1.9 4 -1 1.3 -1.9 1.9 -2 1.2z"/>
  <path d="M280.3 547.5 c0 -2.7 0.2 -4.2 0.4 -3.2 0.2 0.9 1.1 1.7 1.9 1.7 1.8 0 1.8 1.6 0 2.7 -0.7 0.4 -1.5 1.5 -1.8 2.3 -0.3 0.8 -0.5 -0.7 -0.5 -3.5z"/>
  <path d="M682 544.5 c0 -1.6 -0.6 -2.5 -1.5 -2.5 -1.3 0 -1.5 -2.3 -1.5 -14.9 0 -8.2 -0.3 -15.6 -0.6 -16.5 -0.5 -1.2 0 -1.6 2 -1.6 l2.6 0 0 19 c0 10.5 -0.2 19 -0.5 19 -0.3 0 -0.5 -1.1 -0.5 -2.5z"/>
  <path d="M680.7 506.9 c-2.3 -1.3 -2.2 -2.9 0.2 -2.9 2.3 0 3.3 1.1 2.3 2.7 -0.5 0.8 -1.3 0.8 -2.5 0.2z"/>
  <path d="M258.1 505.1 c-1.4 -1 -1.9 -2.1 -1.3 -2.4 0.5 -0.4 1.7 0.4 2.6 1.8 2 3 1.8 3 -1.3 0.6z"/>
  <path d="M699 496.8 c1.1 -1.2 2.3 -1.8 2.7 -1.4 0.5 0.4 -0.1 1.4 -1.1 2.2 -3 2.1 -3.9 1.7 -1.6 -0.8z"/>
  <path d="M243.1 493.1 c-2.1 -1.8 -3 -3.1 -2.3 -3.5 0.6 -0.4 1.7 0.2 2.4 1.3 0.9 1.4 1.6 1.7 2.9 1 2.1 -1.1 3.4 1.4 1.6 2.9 -0.9 0.7 -2.2 0.2 -4.6 -1.7z"/>
  <path d="M706.8 494.3 c0.6 -0.2 1.2 -1.1 1.2 -1.9 0 -0.8 0.7 -1.4 1.5 -1.4 0.8 0 1.5 0.4 1.5 1 0 1 -3.3 3.1 -4.7 2.9 -0.4 0 -0.2 -0.3 0.5 -0.6z"/>
  <path d="M712 492.2 c0 -1 2.1 -3.2 3.2 -3.2 1.6 0 0.8 1.9 -1.2 3 -1.1 0.6 -2 0.7 -2 0.2z"/>
  <path d="M719 487.5 c2.4 -2.5 6 -3.4 6 -1.4 0 0.9 -5.8 3.9 -7.6 3.9 -0.4 0 0.3 -1.1 1.6 -2.5z"/>
  <path d="M223.8 478 c-5 -4 -5.4 -5.9 -0.7 -3.4 2.7 1.4 6.6 6 5.8 6.8 -0.2 0.3 -2.5 -1.3 -5.1 -3.4z"/>
  <path d="M741 478.5 c0 -0.8 0.7 -1.5 1.5 -1.5 0.8 0 1.5 0.4 1.5 0.9 0 0.5 -0.7 1.1 -1.5 1.5 -0.9 0.3 -1.5 0 -1.5 -0.9z"/>
  <path d="M214.8 470.9 c-1.6 -1.1 -2.8 -2.6 -2.8 -3.2 0 -0.8 0.3 -0.7 0.9 0.1 0.4 0.8 1.2 1.2 1.6 1 0.4 -0.1 1.4 0.7 2.3 2 1.8 2.7 1.5 2.7 -2 0.1z"/>
  <path d="M764 468.8 c1.1 -1.2 2.3 -1.8 2.7 -1.4 0.5 0.4 -0.1 1.4 -1.1 2.2 -3 2.1 -3.9 1.7 -1.6 -0.8z"/>
  <path d="M208.1 465.6 c-0.8 -0.9 -0.8 -1.6 -0.2 -2 0.6 -0.4 1.5 0.3 2.1 1.4 1.2 2.3 -0.2 2.7 -1.9 0.6z"/>
  <path d="M198.8 458.4 c-2.7 -2 -4.8 -4.3 -4.8 -5.1 0 -1.2 0.5 -1.1 2.4 0.5 2.3 1.8 8.2 8.2 7.4 8.2 -0.1 0 -2.4 -1.7 -5 -3.6z"/>
  <path d="M791.6 456.5 c2.1 -1.9 4.6 -3.5 5.6 -3.5 3.9 0 1.3 2.5 -5.7 5.4 l-3.8 1.6 3.9 -3.5z"/>
  <path d="M801.2 452.9 c0.2 -0.7 1 -1.5 1.7 -1.7 0.8 -0.3 1.2 0.1 0.9 0.9 -0.2 0.7 -1 1.5 -1.7 1.7 -0.8 0.3 -1.2 -0.1 -0.9 -0.9z"/>
  <path d="M810 449.1 c1.1 -2.2 3 -2.9 3 -1.1 0 0.5 -0.9 1.4 -2.1 2 -1.9 1.1 -2 1 -0.9 -0.9z"/>
  <path d="M181.1 444.5 c-3.6 -2.9 -4 -3.6 -2.6 -4.1 1.1 -0.5 2.1 -0.1 2.7 0.9 0.5 1 1.7 1.7 2.7 1.7 2.1 0 3.3 2.1 2.2 3.8 -0.4 0.7 -2.2 -0.1 -5 -2.3z"/>
  <path d="M816.6 445.5 c-0.5 -1.5 -0.2 -1.7 4.7 -2 2.3 -0.2 2.6 0 1.5 1 -2.3 2.2 -5.5 2.7 -6.2 1z"/>
  <path d="M831.9 439 c3.1 -3.1 6.1 -3.9 6.1 -1.7 0 0.7 -2 2 -4.5 3 l-4.6 1.6 3 -2.9z"/>
  <path d="M849.6 432.2 c0.6 -0.4 1.3 -1.5 1.7 -2.4 0.7 -1.9 4.7 -2.5 4.7 -0.9 0 1.3 -4.1 4.1 -6 4.1 -0.9 0 -1.1 -0.3 -0.4 -0.8z"/>
  <path d="M160.2 427.9 c-2.9 -2.3 -5.1 -4.4 -4.7 -4.7 0.3 -0.4 1 0 1.5 0.8 0.6 0.8 1 1.1 1 0.5 0 -0.5 0.7 -0.1 1.6 1 0.8 1.1 2 2 2.6 2 0.6 0 1.7 1 2.6 2.3 2 3 1.5 2.8 -4.6 -1.9z"/>
  <path d="M859.9 428.1 c0.7 -0.5 1.1 -1.3 0.7 -1.9 -0.7 -1.1 2.1 -2.5 3.5 -1.6 0.5 0.3 0.9 0 0.9 -0.5 0 -0.6 0.7 -1.1 1.5 -1.1 2.7 0 1.5 2.8 -1.5 3.5 -1.6 0.4 -3.2 1.1 -3.5 1.6 -0.4 0.5 -1.2 0.9 -1.8 0.9 -0.8 0 -0.7 -0.3 0.2 -0.9z"/>
  <path d="M874.7 420 c-0.4 -1.6 0 -2 1.9 -2 2.9 0 3.1 1.5 0.5 2.9 -1.5 0.9 -2 0.7 -2.4 -0.9z"/>
  <path d="M142.1 413.9 c-2.9 -2.3 -4.9 -4.4 -4.6 -4.7 0.3 -0.4 1 0 1.5 0.8 0.5 0.8 1.3 1.5 1.7 1.5 0.9 0.1 7.8 6.5 7 6.5 -0.2 0 -2.8 -1.9 -5.6 -4.1z"/>
  <path d="M896.8 412.3 c0.6 -0.2 1.2 -1.1 1.2 -1.9 0 -0.8 0.7 -1.4 1.5 -1.4 0.8 0 1.5 0.4 1.5 1 0 1 -3.3 3.1 -4.7 2.9 -0.4 0 -0.2 -0.3 0.5 -0.6z"/>
  <path d="M903 408.4 c0 -1.1 0.6 -1.5 2 -1.1 1.3 0.3 2 0 2 -0.9 0 -0.8 0.7 -1.4 1.6 -1.4 2.5 0 1 2.3 -2.4 3.7 -2.8 1.2 -3.2 1.1 -3.2 -0.3z"/>
  <path d="M130.3 404.5 c-2.2 -1.9 -2.4 -2.4 -1 -2.5 0.9 0 1.7 0.5 1.7 1.1 0 0.5 0.4 0.8 0.9 0.5 0.5 -0.3 1.1 0.3 1.4 1.4 0.7 2.6 0.4 2.5 -3 -0.5z"/>
  <path d="M914.3 403.6 c0.4 -1 0.7 -2.1 0.7 -2.6 0 -0.4 0.9 -0.6 2 -0.3 2 0.5 2.9 3.3 1.1 3.3 -0.5 0 -1.7 0.3 -2.7 0.7 -1.4 0.5 -1.6 0.3 -1.1 -1.1z"/>
  <path d="M920.7 401 c0.3 -1.1 1.2 -2 1.9 -2 2 0 1.7 1.8 -0.5 2.9 -1.6 0.9 -1.8 0.8 -1.4 -0.9z"/>
  <path d="M121.5 397.9 c-6.3 -5.1 -6.6 -5.5 -3.5 -3.9 1.4 0.7 2.8 1.9 3.3 2.6 0.4 0.7 1.3 1.1 2 0.9 0.6 -0.3 1.7 0.6 2.4 2 0.6 1.4 1 2.5 1 2.5 -0.1 -0.1 -2.4 -1.9 -5.2 -4.1z"/>
  <path d="M91.6 374.6 c-1.5 -1.3 -2.4 -2.6 -2 -2.9 0.5 -0.2 2.2 0.8 3.7 2.4 3.4 3.5 2.3 3.8 -1.7 0.5z"/>
  <path d="M83.4 366.8 l-2.9 -3.3 3.3 2.9 c3 2.8 3.7 3.6 2.9 3.6 -0.2 0 -1.6 -1.5 -3.3 -3.2z"/>
  <path d="M78 359.9 c-1.2 -1.6 -2.1 -3.2 -1.8 -3.4 0.2 -0.2 1.3 1.2 2.6 3.1 2.8 4.2 2.1 4.5 -0.8 0.3z"/>
  <path d="M74.4 352.6 c-0.3 -1.3 -0.4 -3.5 -0.1 -4.7 0.4 -2.2 0.4 -2.2 0.6 0.4 0 1.5 0.6 2.7 1.1 2.7 0.6 0 1 0.9 1 2 0 2.8 -1.8 2.5 -2.6 -0.4z"/>
  <path d="M677.9 342.3 c-0.6 -6.2 -0.4 -6.8 2.2 -6.8 1.9 0 2.5 0.4 2.1 1.5 -0.3 0.8 -1 1.9 -1.6 2.3 -0.7 0.5 -0.4 0.7 0.6 0.5 1.6 -0.3 1.8 0 1.8 2.2 0 1.1 -5 1.4 -5.1 0.3z"/>
  <path d="M86.1 336 c0.9 -0.5 3.6 -1.2 6 -1.5 2.4 -0.3 3.7 -0.3 2.9 0.1 -3.7 1.4 -4.7 1.7 -7.5 2 -2.2 0.3 -2.6 0.1 -1.4 -0.6z"/>
  <path d="M679 330.6 c0 -1.6 0.6 -2.6 1.5 -2.6 0.8 0 1.5 -0.4 1.5 -0.9 0 -2.1 -1.3 -4.1 -2.7 -4.1 -0.8 0 -1.1 -0.4 -0.8 -1 0.4 -0.6 -0.5 -1 -1.9 -1 -1.4 0 -2.6 -0.4 -2.6 -0.9 0 -0.5 -0.8 -1.2 -1.7 -1.4 -1.5 -0.4 -1.4 -0.5 0.3 -0.6 3.5 -0.2 8 1.9 9.3 4.3 1.8 3.3 1 10 -1.1 10.4 -1.3 0.3 -1.8 -0.3 -1.8 -2.2z"/>
 </g>
</svg>