<?xml version="1.0" standalone="no"?>
<!DOCTYPE svg PUBLIC "-//W3C//DTD SVG 20010904//EN"
 "http://www.w3.org/TR/2001/REC-SVG-20010904/DTD/svg10.dtd">
<svg version="1.0" xmlns="http://www.w3.org/2000/svg"
 width="500.000000pt" height="500.000000pt" viewBox="0 0 500.000000 500.000000"
 preserveAspectRatio="xMidYMid meet">

<g transform="translate(0.000000,500.000000) scale(0.100000,-0.100000)"
fill="#000000" stroke="none">
<path d="M2245 4725 c-389 -43 -768 -195 -1095 -439 -123 -92 -347 -315 -436
-436 -419 -566 -552 -1239 -379 -1918 200 -777 828 -1401 1615 -1602 732 -187
1525 20 2088 545 283 264 511 645 621 1037 55 198 75 349 74 578 -1 363 -66
659 -212 965 -118 246 -249 433 -441 625 -487 489 -1146 720 -1835 645z m534
-191 c228 -33 410 -89 616 -189 547 -265 947 -756 1095 -1345 81 -320 81 -681
0 -1000 -167 -664 -654 -1199 -1300 -1430 -981 -351 -2074 92 -2531 1025 -144
294 -209 576 -209 903 0 324 64 608 199 887 305 632 865 1043 1566 1149 127
20 432 20 564 0z"/>
<path d="M1203 3308 c-210 -210 -387 -394 -394 -409 -16 -40 0 -80 42 -101 30
-16 69 -18 357 -18 l322 0 0 -390 c0 -330 2 -396 15 -428 19 -45 1114 -1147
1160 -1167 40 -17 81 -8 105 23 19 24 20 42 20 567 l0 543 36 43 c20 24 274
287 564 585 291 297 551 567 579 599 32 36 57 77 67 109 15 46 15 55 1 88 -32
76 -10 73 -572 70 -275 -2 -528 -7 -563 -12 -35 -5 -82 -18 -105 -30 -23 -12
-121 -99 -217 -194 -96 -94 -188 -183 -203 -196 l-28 -24 -362 362 c-354 353
-364 362 -402 362 -38 0 -48 -9 -422 -382z m779 -750 l-312 -313 0 625 0 625
312 -313 313 -312 -313 -312z m-452 617 l0 -255 -257 0 -258 0 255 255 c140
140 256 255 257 255 2 0 3 -115 3 -255z m2403 100 c-5 -8 -202 -213 -438 -456
-237 -243 -618 -636 -848 -873 -352 -363 -423 -432 -449 -434 -29 -3 -50 16
-280 245 -184 184 -248 255 -248 272 0 18 145 167 601 620 331 328 613 603
628 611 21 12 88 16 351 20 684 12 692 11 683 -5z m-1238 -2274 c-7 -6 -396
381 -393 391 2 3 91 97 198 209 l195 202 3 -398 c1 -219 0 -401 -3 -404z"/>
</g>
</svg>
